<svg xmlns="http://www.w3.org/2000/svg" viewBox="0 0 334.38 583.1"><defs><style>.cls-1{fill:#fe4646;}.cls-2{fill:#590000;}</style></defs><g id="Layer_2" data-name="Layer 2"><g id="Layer_1-2" data-name="Layer 1"><path class="cls-1" d="M0,165.58C.52,118.34,17.37,78.14,52.13,45.93,76,23.78,104,9.14,136.11,2.83,164-2.65,191.29,0,218,9.32c32.27,11.29,59.69,29.84,81.23,56.5C317.66,88.69,328.7,115,333,144c2,13.51,1.52,27.06.34,40.63-2.74,31.5-14.14,60.06-29.33,87.39-13.5,24.28-28.12,47.9-41.73,72.11-6.41,11.41-13,22.76-18.73,34.49-5.15,10.49-9.31,21.44-13.81,32.23A943.74,943.74,0,0,0,182.88,556.1c-1.27,5.34-2.6,10.67-4,16-1,3.52-2.24,7-5.43,9.16a10.49,10.49,0,0,1-15.33-3.87c-2.23-4.22-3.17-8.9-4.24-13.5-7.59-32.54-16.42-64.72-27.11-96.38-10.23-30.29-22.13-59.92-35.09-89.11-5-11.24-11.5-21.79-17.5-32.54C60.91,322.11,46.63,299,33.31,275.36,23.47,257.86,14.49,240,8.57,220.69A193.3,193.3,0,0,1,.41,173.51C.27,170.86.14,168.22,0,165.58Zm167.28-59.05a60.07,60.07,0,1,0,60.09,60.17A60.06,60.06,0,0,0,167.28,106.53Z"/><path class="cls-2" d="M167.28,106.53A60.07,60.07,0,1,1,107,166.36,60,60,0,0,1,167.28,106.53Z"/></g></g></svg>