<?xml version="1.0" encoding="UTF-8" standalone="no"?>
<svg
   width="102.66413"
   height="100"
   viewBox="0 0 102.66413 100"
   fill="none"
   version="1.1"
   id="svg136"
   sodipodi:docname="icon_home-assistant.svg"
   inkscape:version="1.2.2 (b0a84865, 2022-12-01)"
   xmlns:inkscape="http://www.inkscape.org/namespaces/inkscape"
   xmlns:sodipodi="http://sodipodi.sourceforge.net/DTD/sodipodi-0.dtd"
   xmlns="http://www.w3.org/2000/svg"
   xmlns:svg="http://www.w3.org/2000/svg">
  <defs
     id="defs140" />
  <sodipodi:namedview
     id="namedview138"
     pagecolor="#ffffff"
     bordercolor="#000000"
     borderopacity="0.25"
     inkscape:showpageshadow="2"
     inkscape:pageopacity="0.0"
     inkscape:pagecheckerboard="0"
     inkscape:deskcolor="#d1d1d1"
     showgrid="false"
     inkscape:zoom="0.38583845"
     inkscape:cx="-283.79753"
     inkscape:cy="82.936265"
     inkscape:window-width="1309"
     inkscape:window-height="456"
     inkscape:window-x="0"
     inkscape:window-y="44"
     inkscape:window-maximized="0"
     inkscape:current-layer="svg136" />
  <path
     d="m 102.66413,93.579214 c 0,3.529076 -2.887425,6.416506 -6.416504,6.416506 H 6.4165084 C 2.8874288,99.99572 0,97.10829 0,93.579214 V 55.080163 c 0,-3.529079 2.0404497,-8.45653 4.5386102,-10.95469 L 46.793457,1.8704122 c 2.493882,-2.49388295 6.57906,-2.49388295 9.072943,0 L 98.125524,44.129323 c 2.493886,2.493882 4.538606,7.426039 4.538606,10.955118 v 38.499051 z"
     fill="#f2f4f9"
     id="path132"
     style="stroke-width:0.427768" />
  <path
     d="M 98.125524,44.125473 55.870677,1.8704122 c -2.493882,-2.49388295 -6.57906,-2.49388295 -9.072943,0 L 4.5386102,44.125473 C 2.0447274,46.619355 0,51.551084 0,55.080163 V 93.579214 C 0,97.10829 2.8874288,99.99572 6.4165084,99.99572 H 45.88659 L 28.506408,82.61554 c -0.894034,0.307993 -1.847954,0.483377 -2.840374,0.483377 -4.83377,0 -8.769229,-3.935458 -8.769229,-8.769229 0,-4.833769 3.935459,-8.769227 8.769229,-8.769227 4.833769,0 8.769228,3.935458 8.769228,8.769227 0,0.996699 -0.175385,1.950619 -0.483378,2.844653 L 47.482162,90.704618 V 41.134952 c -2.908817,-1.428528 -4.919323,-4.414344 -4.919323,-7.866426 0,-4.833769 3.935459,-8.769227 8.769228,-8.769227 4.833769,0 8.769229,3.935458 8.769229,8.769227 0,3.452082 -2.010507,6.437898 -4.919324,7.866426 V 75.899594 L 68.639529,62.442038 c -0.265216,-0.838424 -0.410657,-1.72818 -0.410657,-2.652158 0,-4.833769 3.935459,-8.769227 8.769229,-8.769227 4.833769,0 8.769228,3.935458 8.769228,8.769227 0,4.833771 -3.935459,8.769229 -8.769228,8.769229 -1.069419,0 -2.087504,-0.20105 -3.03287,-0.55182 L 55.181972,86.790548 V 100 h 41.065654 c 3.529079,0 6.416504,-2.88743 6.416504,-6.416508 V 55.084441 c 0,-3.529079 -2.04045,-8.456958 -4.538606,-10.955118 z"
     fill="#18bcf2"
     id="path134"
     style="stroke-width:0.427768" />
</svg>
