<?xml version="1.0" encoding="UTF-8" standalone="no"?>
<svg
   viewBox="0 0 100 100"
   width="100"
   height="100"
   version="1.1"
   id="svg11435"
   sodipodi:docname="icon_wordpress.svg"
   inkscape:version="1.2.2 (b0a84865, 2022-12-01)"
   xmlns:inkscape="http://www.inkscape.org/namespaces/inkscape"
   xmlns:sodipodi="http://sodipodi.sourceforge.net/DTD/sodipodi-0.dtd"
   xmlns="http://www.w3.org/2000/svg"
   xmlns:svg="http://www.w3.org/2000/svg">
  <defs
     id="defs11439" />
  <sodipodi:namedview
     id="namedview11437"
     pagecolor="#ffffff"
     bordercolor="#000000"
     borderopacity="0.25"
     inkscape:showpageshadow="2"
     inkscape:pageopacity="0.0"
     inkscape:pagecheckerboard="0"
     inkscape:deskcolor="#d1d1d1"
     showgrid="false"
     inkscape:zoom="4.9166667"
     inkscape:cx="12.305085"
     inkscape:cy="19.932203"
     inkscape:window-width="1309"
     inkscape:window-height="456"
     inkscape:window-x="0"
     inkscape:window-y="44"
     inkscape:window-maximized="0"
     inkscape:current-layer="svg11435" />
  <path
     fill="#ffffff"
     d="m 50,0.125 a 49.875,49.875 0 1 0 0,99.75 49.875,49.875 0 1 0 0,-99.75 z"
     id="path11429"
     style="stroke-width:2.5" />
  <path
     fill="#01579b"
     d="m 10.0025,50 c 0,15.84 9.2,29.515 22.545,36 L 13.4625,33.72 c -2.2175,4.9775 -3.46,10.47 -3.46,16.28 z M 77.01,47.985 c 0,-4.9425 -2.6575,-8.375 -4.175,-11.03 -2.0325,-3.3225 -3.94,-6.0925 -3.94,-9.38 0,-3.6625 3.6775,-7.1 7.6025,-7.1 0.1775,0 0.3375,0.015 0.515,0.02 C 69.9025,13.96 60.42,10 50.0025,10 36.53,10 24.62,16.665 17.3725,26.8725 c 0.57,0.185 0.7675,0.0975 1.5275,0.0975 4.1725,0 10.66,-0.5 10.66,-0.5 2.15,-0.1425 2.4125,3.03 0.2475,3.29 0,0 -2.16,0.2625 -4.57,0.38 l 14.8275,44.445 8.75,-26.2525 -6.5075,-18.12 c -2.1525,-0.115 -4.1975,-0.38 -4.1975,-0.38 -2.155,-0.14 -1.905,-3.4375 0.245,-3.29 0,0 6.62,0.5 10.5425,0.5 4.1875,0 10.66,-0.5 10.66,-0.5 2.1525,-0.1425 2.4125,3.03 0.26,3.29 0,0 -2.175,0.2625 -4.58,0.38 l 14.7275,44.025 3.9975,-13.315 c 2.035,-5.2 3.0475,-9.5 3.0475,-12.9375 z m -26.3075,5.505 -12,34.88 c 3.59,1.065 7.375,1.63 11.3,1.63 4.6525,0 9.1225,-0.81 13.29,-2.2675 -0.1,-0.1775 -0.2125,-0.3575 -0.295,-0.55 z m 34.405,-22.695 c 0.1775,1.275 0.27,2.6475 0.27,4.1125 0,4.07 -0.765,8.6275 -3.0475,14.3425 L 70.1175,84.5875 C 82.0125,77.6575 90,64.755 90,50 90,43.0475 88.2225,36.51 85.1075,30.795 Z"
     id="path11431"
     style="stroke-width:2.5" />
  <path
     fill="#01579b"
     d="M 0,50 C 0,77.56 22.425,100 49.9975,100 77.575,100 100,77.56 100,50 100,22.44 77.575,0 50,0 22.425,0 0,22.44 0,50 Z m 4.9875,0 c 0,-24.81 20.185,-44.9975 45.01,-44.9975 24.825,0 45.015,20.1875 45.015,44.9975 0,24.81 -20.19,45.0025 -45.0125,45.0025 C 25.18,95.0025 4.9875,74.81 4.9875,50 Z"
     id="path11433"
     style="stroke-width:2.5" />
</svg>
